# xmcd
#
# Track frame offsets:
#	150
#	18365
#	31705
#	44697
#	67460
#	83627
#	99695
#	125567
#	137942
#
# Disc length: 2147 seconds
#
# Revision: 0
# Processed by: cddbd v1.5.1PL0 Copyright (c) Steve Scherf et al.
# Submitted via: audiograbber 1.83.01
#
DISCID=7f086109
DTITLE=Bo Diddley - The London Sessions
DYEAR=1973
DGENRE=R&R
TTITLE0=Don't Want No Lyin' Woman
TTITLE1=Bo Diddley
TTITLE2=Going Down
TTITLE3=Make A Hit Record
TTITLE4=Bo-Jam
TTITLE5=Husband-In-Law
TTITLE6=Do The Robot
TTITLE7=Sneakers On A Rooster
TTITLE8=Get Out Of My Life
EXTD=
EXTT0=
EXTT1=
EXTT2=
EXTT3=
EXTT4=
EXTT5=
EXTT6=
EXTT7=
EXTT8=
PLAYORDER=
